<?xml version="1.0" encoding="utf-8"?>
<!-- Generator: Adobe Illustrator 16.0.4, SVG Export Plug-In . SVG Version: 6.00 Build 0)  -->
<!DOCTYPE svg PUBLIC "-//W3C//DTD SVG 1.1//EN" "http://www.w3.org/Graphics/SVG/1.1/DTD/svg11.dtd">
<svg version="1.1" id="Capa_1" xmlns="http://www.w3.org/2000/svg" xmlns:xlink="http://www.w3.org/1999/xlink" x="0px" y="0px"
	 width="40px" height="40px" viewBox="0 0 40 40" enable-background="new 0 0 40 40" xml:space="preserve">
<g>
	<g>
		<g>
			<path fill="none" stroke="#7BC142" stroke-width="2" stroke-linecap="round" stroke-linejoin="round" stroke-miterlimit="10" d="
				M21,31H9.729C7.415,31,6,30.257,6,27.956V7.065C6,4.767,7.415,3,9.729,3h21.039C33.083,3,35,4.767,35,7.065v20.891
				C35,30.257,33.367,31,31.4,31S26,31,26,31"/>
		</g>
		<g>
			
				<path id="Facebook" fill="none" stroke="#7BC142" stroke-width="2" stroke-linecap="round" stroke-linejoin="round" stroke-miterlimit="10" d="
				M26,31V21h3.343c0,0,0.461-4,0.61-4C29.521,17,26,17,26,17s0-3.443,0-3.852C26,12.739,28.304,13,28.839,13C29.373,13,27,13,29,13
				c0-1,0-5,0-6c-2,0-0.436,0-1.134,0C22.661,7,21,9.82,21,10.417c0,0.6,0,6.583,0,6.583h-3v4h3v10"/>
		</g>
	</g>
	<ellipse fill="#7BC142" cx="21.057" cy="36.724" rx="1.112" ry="1.103"/>
	<ellipse fill="#7BC142" cx="25.504" cy="36.724" rx="1.112" ry="1.103"/>
	<ellipse fill="#7BC142" cx="29.953" cy="36.724" rx="1.112" ry="1.103"/>
	<ellipse fill="#7BC142" cx="12.159" cy="36.724" rx="1.112" ry="1.103"/>
	<ellipse fill="#7BC142" cx="16.608" cy="36.724" rx="1.112" ry="1.103"/>
</g>
</svg>
