<?xml version="1.0" encoding="utf-8"?>
<!-- Generator: Adobe Illustrator 16.0.4, SVG Export Plug-In . SVG Version: 6.00 Build 0)  -->
<!DOCTYPE svg PUBLIC "-//W3C//DTD SVG 1.1//EN" "http://www.w3.org/Graphics/SVG/1.1/DTD/svg11.dtd">
<svg version="1.1" id="Capa_1" xmlns="http://www.w3.org/2000/svg" xmlns:xlink="http://www.w3.org/1999/xlink" x="0px" y="0px"
	 width="40px" height="40px" viewBox="0 0 40 40" enable-background="new 0 0 40 40" xml:space="preserve">
<ellipse fill="#7BC142" cx="21.057" cy="36.724" rx="1.112" ry="1.103"/>
<ellipse fill="#7BC142" cx="25.504" cy="36.724" rx="1.112" ry="1.103"/>
<ellipse fill="#7BC142" cx="29.953" cy="36.724" rx="1.112" ry="1.103"/>
<ellipse fill="#7BC142" cx="12.159" cy="36.724" rx="1.112" ry="1.103"/>
<ellipse fill="#7BC142" cx="16.608" cy="36.724" rx="1.112" ry="1.103"/>
<circle fill="none" stroke="#7BC142" stroke-width="1.9868" stroke-linecap="round" stroke-linejoin="round" stroke-miterlimit="10" cx="20.732" cy="17.526" r="4.553"/>
<circle fill="#7BC142" cx="26.338" cy="11.25" r="1.117"/>
<g>
	<path fill="none" stroke="#7BC142" stroke-width="2" stroke-linecap="round" stroke-linejoin="round" stroke-miterlimit="10" d="
		M31,24c0,1.657-1.343,3-3,3H13c-1.657,0-3-1.343-3-3V10c0-1.657,1.343-3,3-3h15c1.657,0,3,1.343,3,3V24z"/>
</g>
<g>
	<path fill="none" stroke="#7BC142" stroke-width="2" stroke-linecap="round" stroke-linejoin="round" stroke-miterlimit="10" d="
		M35,27c0,2.209-1.791,4-4,4H10c-2.209,0-4-1.791-4-4V7c0-2.209,1.791-4,4-4h21c2.209,0,4,1.791,4,4V27z"/>
</g>
</svg>
