<?xml version="1.0" encoding="utf-8"?>
<!-- Generator: Adobe Illustrator 16.0.4, SVG Export Plug-In . SVG Version: 6.00 Build 0)  -->
<!DOCTYPE svg PUBLIC "-//W3C//DTD SVG 1.1//EN" "http://www.w3.org/Graphics/SVG/1.1/DTD/svg11.dtd">
<svg version="1.1" id="Capa_1" xmlns="http://www.w3.org/2000/svg" xmlns:xlink="http://www.w3.org/1999/xlink" x="0px" y="0px"
	 width="40px" height="40px" viewBox="0 0 40 40" enable-background="new 0 0 40 40" xml:space="preserve">
<ellipse fill="#7BC142" cx="21.057" cy="36.724" rx="1.112" ry="1.103"/>
<ellipse fill="#7BC142" cx="25.504" cy="36.724" rx="1.112" ry="1.103"/>
<ellipse fill="#7BC142" cx="29.953" cy="36.724" rx="1.112" ry="1.103"/>
<ellipse fill="#7BC142" cx="12.159" cy="36.724" rx="1.112" ry="1.103"/>
<ellipse fill="#7BC142" cx="16.608" cy="36.724" rx="1.112" ry="1.103"/>
<g>
	<path fill="none" stroke="#7BC142" stroke-width="2" stroke-linecap="round" stroke-linejoin="round" stroke-miterlimit="10" d="
		M35,27c0,2.209-1.791,4-4,4H10c-2.209,0-4-1.791-4-4V7c0-2.209,1.791-4,4-4h21c2.209,0,4,1.791,4,4V27z"/>
</g>
<g>
	<path fill="#7BC142" d="M13.704,7.307c1.32,0,2.4,1.079,2.4,2.4c0,1.321-1.08,2.346-2.4,2.346c-1.321,0-2.347-1.024-2.347-2.346
		C11.357,8.386,12.382,7.307,13.704,7.307z M11.68,14.533c0-0.566,0.163-0.729,0.729-0.729h2.669c0.566,0,0.729,0.163,0.729,0.729
		v12.268c0,0.566-0.163,0.729-0.729,0.729h-2.669c-0.566,0-0.729-0.163-0.729-0.729V14.533z"/>
	<path fill="#7BC142" d="M20.878,15.503c1.051-1.133,2.022-1.994,3.936-1.994c3.074,0,5.15,1.401,5.15,6.362v6.929
		c0,0.566-0.162,0.729-0.729,0.729h-2.67c-0.566,0-0.727-0.163-0.727-0.729V20.68c0-2.455-0.459-3.504-2.076-3.504
		c-1.673,0-2.185,1.049-2.185,3.504v6.121c0,0.566-0.163,0.729-0.727,0.729h-2.669c-0.566,0-0.729-0.163-0.729-0.729V20.68v-6.147
		c0-0.566,0.163-0.729,0.729-0.729h1.293c0.433,0,0.566,0.215,0.863,0.729L20.878,15.503z"/>
</g>
</svg>
