<svg xmlns="http://www.w3.org/2000/svg" viewBox="123 176 143.916 65.057"><defs><style>.a{fill:#e8771d;}.b,.c{fill:#394024;}.c{font-size:8px;font-family:AcherusGrotesque-Regular, Acherus Grotesque;}</style></defs><path class="a" d="M-1.723-13.859A64.469,64.469,0,0,1-6.2-38.813a66.367,66.367,0,0,1,.853-11.064h3.16a49.3,49.3,0,0,0-1,10.581A79.926,79.926,0,0,0-.107-16.736,79.9,79.9,0,0,0,2.975-39.3a49.257,49.257,0,0,0-1-10.581H5.133a66.292,66.292,0,0,1,.855,11.064A64.469,64.469,0,0,1,1.51-13.859Z" transform="translate(139.523 231.237)"/><path class="a" d="M-.088-.07A.7.7,0,1,1-.134.921.7.7,0,0,1-.088-.07" transform="translate(150.795 190.295)"/><path class="a" d="M-.088-.07A.7.7,0,1,1-.134.921.7.7,0,0,1-.088-.07" transform="translate(150.795 192.473)"/><path class="a" d="M-.088-.07A.7.7,0,1,1-.133.921.7.7,0,0,1-.088-.07" transform="translate(152.278 194.172)"/><path class="a" d="M-.088-.07A.7.7,0,1,1-.133.921.7.7,0,0,1-.088-.07" transform="translate(150.352 199.852)"/><path class="a" d="M-.1-.061a.7.7,0,1,1-.1.988A.7.7,0,0,1-.1-.061" transform="translate(150.288 202.048)"/><path class="a" d="M-.1-.059A.7.7,0,1,1-.213.927.7.7,0,0,1-.1-.059" transform="translate(151.711 203.812)"/><path class="a" d="M-.088-.07A.7.7,0,1,1-.134.922.7.7,0,0,1-.088-.07" transform="translate(151.838 198.495)"/><path class="a" d="M-.113-.05A.7.7,0,1,1-.279.928.7.7,0,0,1-.113-.05" transform="translate(148.946 209.3)"/><path class="a" d="M-.119-.045A.7.7,0,1,1-.312.928.7.7,0,0,1-.119-.045" transform="translate(148.787 211.732)"/><path class="a" d="M-.113-.05A.7.7,0,1,1-.279.928.7.7,0,0,1-.113-.05" transform="translate(150.599 208.115)"/><path class="a" d="M-.027-.152A.7.7,0,1,1,.3.786.7.7,0,0,1-.027-.152" transform="translate(153.903 187.087)"/><path class="a" d="M0-.256A.7.7,0,0,1,.735-.921.7.7,0,0,1,1.4-.187.7.7,0,0,1,.666.479.7.7,0,0,1,0-.256" transform="translate(154.453 185.009)"/><path class="a" d="M0-.32a.7.7,0,0,1,.56-.82.7.7,0,0,1,.819.558.7.7,0,0,1-.559.82A.7.7,0,0,1,0-.32" transform="translate(154.372 182.577)"/><path class="a" d="M-.037-.406a.7.7,0,0,1,.253-.96.7.7,0,0,1,.959.251.7.7,0,0,1-.251.96.7.7,0,0,1-.96-.251" transform="translate(153.629 180.427)"/><path class="a" d="M-.088-.07A.7.7,0,1,1-.133.921.7.7,0,0,1-.088-.07" transform="translate(152.547 188.672)"/><path class="a" d="M-.452-.07a.7.7,0,0,0-.991.047A.7.7,0,0,0-1.4.968.7.7,0,0,0-.407.921.7.7,0,0,0-.452-.07" transform="translate(128.601 190.295)"/><path class="a" d="M-.452-.07a.7.7,0,0,0-.991.048A.7.7,0,0,0-1.4.968.7.7,0,0,0-.407.921.7.7,0,0,0-.452-.07" transform="translate(128.601 192.473)"/><path class="a" d="M-.451-.07a.7.7,0,0,0-.989.048A.7.7,0,0,0-1.4.967.7.7,0,0,0-.405.921.7.7,0,0,0-.451-.07" transform="translate(127.115 194.172)"/><path class="a" d="M-.452-.07a.7.7,0,0,0-.99.048A.7.7,0,0,0-1.4.968.7.7,0,0,0-.406.921.7.7,0,0,0-.452-.07" transform="translate(129.042 199.852)"/><path class="a" d="M-.441-.061a.7.7,0,0,0-.986.1.7.7,0,0,0,.1.986.7.7,0,0,0,.987-.1.7.7,0,0,0-.1-.988" transform="translate(129.106 202.048)"/><path class="a" d="M-.438-.059a.7.7,0,0,0-.985.113.7.7,0,0,0,.11.985A.7.7,0,0,0-.328.927a.7.7,0,0,0-.11-.986" transform="translate(127.684 203.812)"/><path class="a" d="M-.452-.07a.7.7,0,0,0-.991.048A.7.7,0,0,0-1.4.968.7.7,0,0,0-.406.922.7.7,0,0,0-.452-.07" transform="translate(127.557 198.495)"/><path class="a" d="M-.426-.05A.7.7,0,0,0-1.4.115a.7.7,0,0,0,.164.978A.7.7,0,0,0-.262.928.7.7,0,0,0-.426-.05" transform="translate(130.45 209.3)"/><path class="a" d="M-.42-.045a.7.7,0,0,0-.973.194.7.7,0,0,0,.193.973A.7.7,0,0,0-.227.928.7.7,0,0,0-.42-.045" transform="translate(130.607 211.732)"/><path class="a" d="M-.426-.05A.7.7,0,0,0-1.4.116a.7.7,0,0,0,.165.978A.7.7,0,0,0-.26.928.7.7,0,0,0-.426-.05" transform="translate(128.795 208.115)"/><path class="a" d="M-.513-.152a.7.7,0,0,0-.938-.324.7.7,0,0,0-.324.937A.7.7,0,0,0-.839.786.7.7,0,0,0-.513-.152" transform="translate(125.493 187.087)"/><path class="a" d="M-.54-.256a.7.7,0,0,0-.737-.665.7.7,0,0,0-.665.734.7.7,0,0,0,.734.666A.7.7,0,0,0-.54-.256" transform="translate(124.942 185.009)"/><path class="a" d="M-.535-.32a.7.7,0,0,0-.559-.82.7.7,0,0,0-.82.558.7.7,0,0,0,.558.82A.7.7,0,0,0-.535-.32" transform="translate(125.023 182.577)"/><path class="a" d="M-.5-.406a.7.7,0,0,0-.252-.96.7.7,0,0,0-.96.251.7.7,0,0,0,.252.96A.7.7,0,0,0-.5-.406" transform="translate(125.765 180.427)"/><path class="a" d="M-.452-.07a.7.7,0,0,0-.991.047A.7.7,0,0,0-1.4.968.7.7,0,0,0-.405.921.7.7,0,0,0-.452-.07" transform="translate(126.847 188.672)"/><path class="a" d="M-1.868-.749a.6.6,0,0,1,.843-.039.6.6,0,0,1,.04.843A.6.6,0,0,1-1.828.1a.6.6,0,0,1-.04-.844M3.773,30.463l-4-2.824A.739.739,0,0,1-.348,26.6l2.677-3.135a1.486,1.486,0,0,0-.1-2.1l-3.354-3.055A.742.742,0,0,1-1.17,17.26l3.057-3.351a1.488,1.488,0,0,0-.1-2.1L-2.649,7.75a1.542,1.542,0,0,1-.1-2.1L1.877-.523A1.241,1.241,0,0,0,1.8-2.274a2.033,2.033,0,0,0-1.663-.4,7.689,7.689,0,0,0-6.8,8.711A4.794,4.794,0,0,0-5.2,9.45L-1.858,12.5a.739.739,0,0,1,.048,1.047L-4.866,16.9a1.488,1.488,0,0,0,.1,2.1l3.353,3.057a.74.74,0,0,1,.048,1.047l-2.691,3.372a1.488,1.488,0,0,0,.232,2.091L.184,31.431A.74.74,0,0,1,.31,32.472l-1.728,2.584a1.486,1.486,0,0,0,.343,2.075A1.487,1.487,0,0,0,1,36.788l3.024-4.237a1.487,1.487,0,0,0-.252-2.088" transform="translate(131.07 178.696)"/><path class="a" d="M-2.375-1.074a.6.6,0,0,1-.844-.04.6.6,0,0,1,.04-.843.6.6,0,0,1,.843.039.6.6,0,0,1-.039.844m-1.962-2.77A2.032,2.032,0,0,0-6-3.443a1.24,1.24,0,0,0-.081,1.751L-1.457,4.48a1.541,1.541,0,0,1-.1,2.1L-6,10.638a1.486,1.486,0,0,0-.1,2.1l3.059,3.352a.742.742,0,0,1-.049,1.047l-3.354,3.054a1.489,1.489,0,0,0-.1,2.1l2.678,3.134a.74.74,0,0,1-.116,1.042l-4,2.824a1.486,1.486,0,0,0-.253,2.088L-5.2,35.619a1.488,1.488,0,0,0,2.075.343,1.487,1.487,0,0,0,.344-2.075L-4.514,31.3a.741.741,0,0,1,.127-1.041L-.376,27.4A1.489,1.489,0,0,0-.143,25.31l-2.691-3.372a.74.74,0,0,1,.048-1.047L.566,17.834a1.488,1.488,0,0,0,.1-2.1l-3.056-3.351a.742.742,0,0,1,.048-1.048L1,8.281A4.8,4.8,0,0,0,2.467,4.866a7.69,7.69,0,0,0-6.8-8.71" transform="translate(151.988 179.865)"/><path class="b" d="M-32.624-3.461v-7.721h2.15a7.234,7.234,0,0,1,1.507.153,3.281,3.281,0,0,1,1.1.459A3.466,3.466,0,0,1-26.7-9.2a4.09,4.09,0,0,1,.42,1.886,4.205,4.205,0,0,1-.42,1.891,3.544,3.544,0,0,1-1.168,1.366,3.315,3.315,0,0,1-1.1.464,7.4,7.4,0,0,1-1.507.134Zm4.049.43a3.589,3.589,0,0,0,1.3-.628,4.239,4.239,0,0,0,1.3-1.586A4.687,4.687,0,0,0-25.5-7.33a4.717,4.717,0,0,0-.468-2.083A4.247,4.247,0,0,0-27.273-11a3.689,3.689,0,0,0-1.288-.63,7.238,7.238,0,0,0-1.737-.2h-3.07v9h3.07a6.293,6.293,0,0,0,1.723-.211M-41.451-6.4l1.639-3.893L-38.194-6.4Zm1.487-5.079-3.7,8.661h.719l1.261-3h3.726l1.265,3h.719l-3.7-8.661ZM-52.132-3.461v-7.721h2.144a7.236,7.236,0,0,1,1.508.153,3.3,3.3,0,0,1,1.1.459A3.564,3.564,0,0,1-46.208-9.2a4.218,4.218,0,0,1,.414,1.886,4.339,4.339,0,0,1-.414,1.891,3.647,3.647,0,0,1-1.174,1.366,3.329,3.329,0,0,1-1.1.464,7.4,7.4,0,0,1-1.508.134Zm4.045.43a3.836,3.836,0,0,0,1.306-.628,4.329,4.329,0,0,0,1.3-1.586,4.73,4.73,0,0,0,.46-2.084,4.76,4.76,0,0,0-.46-2.083A4.338,4.338,0,0,0-46.781-11a3.944,3.944,0,0,0-1.294-.63,7.174,7.174,0,0,0-1.734-.2h-3.086v9h3.086a6.313,6.313,0,0,0,1.722-.211m-8.14-8.793h-.759v9h.759Zm-3.627,6.666A2.76,2.76,0,0,0-60-6.014a2.466,2.466,0,0,0-.439-.716A4.743,4.743,0,0,0-62.084-7.7c-.089-.044-.147-.063-.192-.093A4.057,4.057,0,0,1-63.7-8.633a1.351,1.351,0,0,1-.33-.958,1.6,1.6,0,0,1,.508-1.216,1.886,1.886,0,0,1,1.316-.479,2.935,2.935,0,0,1,.993.177,4.694,4.694,0,0,1,1.065.571v-.807a5.209,5.209,0,0,0-1-.451,4.06,4.06,0,0,0-1.018-.151,2.59,2.59,0,0,0-1.859.676,2.231,2.231,0,0,0-.719,1.7,2.04,2.04,0,0,0,.466,1.4,4.815,4.815,0,0,0,1.752,1.072,4.932,4.932,0,0,1,1.577.9,1.455,1.455,0,0,1,.338,1.007,1.7,1.7,0,0,1-.508,1.314,1.917,1.917,0,0,1-1.376.482,2.834,2.834,0,0,1-1.082-.244,5.04,5.04,0,0,1-1.2-.732V-3.5a4.778,4.778,0,0,0,1.141.6,3.533,3.533,0,0,0,1.152.194A2.625,2.625,0,0,0-60.6-3.388a2.323,2.323,0,0,0,.745-1.771m-12.761-6.049h1.495a2.413,2.413,0,0,1,1.559.432,1.457,1.457,0,0,1,.537,1.211,1.793,1.793,0,0,1-.235.965A1.549,1.549,0,0,1-70-7.994a2.812,2.812,0,0,1-.657.185c-.277.026-.739.042-1.406.042h-.555Zm0,4.058h.724a5.038,5.038,0,0,1,1.147.105,1.306,1.306,0,0,1,.633.343,6.88,6.88,0,0,1,.474.6c.2.27.45.628.719,1.068l1.425,2.212h.807l-2.457-3.788a2.653,2.653,0,0,0-.342-.436,3.23,3.23,0,0,0-.451-.328A2.491,2.491,0,0,0-68.661-8.2a2.152,2.152,0,0,0,.419-1.366,1.976,1.976,0,0,0-.747-1.675,3.526,3.526,0,0,0-2.172-.584h-2.162v9h.709ZM-76.5-3.435h-4.211V-7.094h3.97v-.577h-3.97v-3.569H-76.6v-.584h-4.828v9H-76.5Zm-10.849.764,3.777-9.154h-.765L-87.409-4.27l-3.038-7.556h-.8l3.79,9.154Zm-7.239-.149h.766v-9h-.766Zm-10.521-8.089,6.593,7.956h.66v-8.992h-.709v7.835l-6.515-7.835h-.748v8.992h.719Zm-8.139,8.887a4,4,0,0,0,3.065-1.213,4.671,4.671,0,0,0,1.134-3.27v-5.95h-.858v6a3.718,3.718,0,0,1-.892,2.608,3.238,3.238,0,0,1-2.449.975,3.17,3.17,0,0,1-2.428-.975,3.636,3.636,0,0,1-.916-2.608v-6h-.818v5.95a4.576,4.576,0,0,0,1.121,3.27,3.966,3.966,0,0,0,3.04,1.213M-66.34,11.609A4.782,4.782,0,0,1-67.4,13.174a4.744,4.744,0,0,1-1.6,1.046,5.284,5.284,0,0,1-1.935.36,5.3,5.3,0,0,1-1.919-.36,5.1,5.1,0,0,1-1.6-1.046,4.6,4.6,0,0,1-1.067-1.565A4.493,4.493,0,0,1-75.9,9.769a4.7,4.7,0,0,1,.374-1.859,4.768,4.768,0,0,1,1.067-1.542A5.6,5.6,0,0,1-72.818,5.3a4.98,4.98,0,0,1,1.875-.362,4.986,4.986,0,0,1,1.9.362,4.748,4.748,0,0,1,1.608,1.063,4.857,4.857,0,0,1,1.106,1.589,4.637,4.637,0,0,1,.358,1.813,4.527,4.527,0,0,1-.372,1.841m.929-7.074a7.766,7.766,0,0,0-2.515-1.6,8.5,8.5,0,0,0-3.017-.553,8.255,8.255,0,0,0-2.964.553,7.5,7.5,0,0,0-2.53,1.6,7.26,7.26,0,0,0-1.711,2.374,7.022,7.022,0,0,0-.6,2.8,7.235,7.235,0,0,0,.583,2.879,7.282,7.282,0,0,0,1.726,2.426A7.724,7.724,0,0,0-73.921,16.6a8.339,8.339,0,0,0,2.979.552,8.335,8.335,0,0,0,3-.539,8.027,8.027,0,0,0,2.548-1.6A7.475,7.475,0,0,0-63.7,12.646a6.991,6.991,0,0,0,.583-2.821,7.219,7.219,0,0,0-.57-2.872A7.3,7.3,0,0,0-65.41,4.535m46.678,9.956V10.936H-11.9V8.451h-6.833V5.035h7.047V2.563h-9.935v14.4h10.163v-2.47ZM-26,11.4a2.652,2.652,0,0,1-.972,2.167,3.97,3.97,0,0,1-2.652.848,4.49,4.49,0,0,1-1.753-.331,3.551,3.551,0,0,1-1.321-.976,1.889,1.889,0,0,1-.4-.811,7.667,7.667,0,0,1-.14-1.784V2.5h-2.681v8.1a9.642,9.642,0,0,0,.243,2.516,4.106,4.106,0,0,0,.82,1.556,6.009,6.009,0,0,0,2.264,1.738,7.344,7.344,0,0,0,2.967.586A6.688,6.688,0,0,0-25.1,15.466a4.97,4.97,0,0,0,1.763-4V2.5H-26Zm-14.306.2a4.819,4.819,0,0,1-1.066,1.587l-.016.014a4.985,4.985,0,0,1-1.6,1.108,5.044,5.044,0,0,1-1.888.37,4.849,4.849,0,0,1-1.89-.383,5.189,5.189,0,0,1-1.607-1.1v-.014A4.6,4.6,0,0,1-49.432,11.6a4.7,4.7,0,0,1-.377-1.891,4.814,4.814,0,0,1,.377-1.914,4.682,4.682,0,0,1,1.048-1.58A5.2,5.2,0,0,1-46.75,5.125a4.734,4.734,0,0,1,1.872-.374,4.716,4.716,0,0,1,1.888.374A4.639,4.639,0,0,1-41.4,6.2a4.936,4.936,0,0,1,1.09,1.636,4.6,4.6,0,0,1,.373,1.872,4.792,4.792,0,0,1-.373,1.891m1.587,2.995a6.861,6.861,0,0,0,1.62-4.536,7.81,7.81,0,0,0-.571-2.96A7.669,7.669,0,0,0-39.38,4.644a7.527,7.527,0,0,0-2.5-1.634,8.108,8.108,0,0,0-3-.568,7.935,7.935,0,0,0-2.964.568,7.778,7.778,0,0,0-2.525,1.634A7.442,7.442,0,0,0-52.039,7.07a6.959,6.959,0,0,0-.607,2.85,7.379,7.379,0,0,0,1.61,4.708,7.5,7.5,0,0,0,4.162,2.646,18.966,18.966,0,0,0,3.611,2.067,8.316,8.316,0,0,0,3.21.736h.283a1.091,1.091,0,0,0,.236-.024l.116-.017,2.135-1.875-.162-.451-.118-.284-.282.062a7.012,7.012,0,0,1-.739.114,3.239,3.239,0,0,1-.588.038,7.542,7.542,0,0,1-1.748-.228c-.378-.107-.811-.259-1.271-.436a7.987,7.987,0,0,0,3.471-2.382M-56.855,8.5h0l-.308-.169A9.72,9.72,0,0,1-58.982,7.04a2.1,2.1,0,0,1-.4-.5.635.635,0,0,1-.12-.346.968.968,0,0,1,.461-.842,2.228,2.228,0,0,1,1.35-.373,3.876,3.876,0,0,1,1.467.283,7.453,7.453,0,0,1,1.651.992l.582.433v-3.1l-.175-.106a8.443,8.443,0,0,0-1.712-.716,6.675,6.675,0,0,0-1.727-.243A5,5,0,0,0-60.883,3.6a3.572,3.572,0,0,0-1.3,2.813,3.4,3.4,0,0,0,.688,2.13,6.185,6.185,0,0,0,1.142,1.018c.523.4,1.193.827,2.005,1.327.512.292.922.564,1.243.79a4.225,4.225,0,0,1,.648.538,1.446,1.446,0,0,1,.329.9,1.15,1.15,0,0,1-.481.958,2.375,2.375,0,0,1-1.452.387,3.653,3.653,0,0,1-1.727-.415,7.122,7.122,0,0,1-1.752-1.407l-.629-.68v3.6l.155.1a5.954,5.954,0,0,0,1.885,1.02,6.689,6.689,0,0,0,2.195.334,4.966,4.966,0,0,0,3.273-1.08,3.525,3.525,0,0,0,1.315-2.79,4.124,4.124,0,0,0-.7-2.443,8.786,8.786,0,0,0-2.805-2.2m-26.254,5.366a3.394,3.394,0,0,1-2.065.461h-2.5v-3.9h2.145a4.1,4.1,0,0,1,2.337.509,1.671,1.671,0,0,1,.65,1.485,1.648,1.648,0,0,1-.57,1.441m-4.562-9.83h1.684a2.882,2.882,0,0,1,1.781.417,1.266,1.266,0,0,1,.362.508,2.441,2.441,0,0,1,.121.81,1.7,1.7,0,0,1-.647,1.5,3.8,3.8,0,0,1-2.215.511h-1.087Zm5.324,4.625a3.479,3.479,0,0,0,.988-.9,3.5,3.5,0,0,0,.614-2.125,3.894,3.894,0,0,0-1.347-3.146A5.546,5.546,0,0,0-85.764,1.4h-4.754v15.6h5.568a6.1,6.1,0,0,0,3.911-1.184,3.932,3.932,0,0,0,1.5-3.237,3.99,3.99,0,0,0-.973-2.681,4.689,4.689,0,0,0-1.833-1.233M-102.83,2.488h-2.89v14.5h10.157V14.52h-7.267Zm-11.644,7.958h6.792V7.805h-6.792V4.013h6.984V1.41h-9.862V16.992h10.089V14.353h-7.21Z" transform="translate(278.374 193.924)"/><text class="c" transform="translate(160.25 239.057)"><tspan x="0" y="0">Campus Virtual UEB</tspan></text><path class="b" d="M74.5-38.278H52.693v-2.89H74.5Z" transform="translate(108.358 262.261)"/></svg>