<?xml version="1.0" encoding="utf-8"?>
<!-- Generator: Adobe Illustrator 16.0.4, SVG Export Plug-In . SVG Version: 6.00 Build 0)  -->
<!DOCTYPE svg PUBLIC "-//W3C//DTD SVG 1.1//EN" "http://www.w3.org/Graphics/SVG/1.1/DTD/svg11.dtd">
<svg version="1.1" id="Capa_1" xmlns="http://www.w3.org/2000/svg" xmlns:xlink="http://www.w3.org/1999/xlink" x="0px" y="0px"
	 width="40px" height="40px" viewBox="-0.5 -0.5 40 40" enable-background="new -0.5 -0.5 40 40" xml:space="preserve">
<g>
	<circle fill="#7BC142" cx="19.5" cy="36.5" r="1"/>
	<circle fill="#7BC142" cx="23.5" cy="36.5" r="1"/>
	<circle fill="#7BC142" cx="11.5" cy="36.5" r="1"/>
	<circle fill="#7BC142" cx="15.5" cy="36.5" r="1"/>
	<circle fill="#7BC142" cx="27.5" cy="36.5" r="1"/>
</g>
<g>
	<g>
		<path fill="#7BC142" d="M33.646,24.834c0.062,0.459-0.08,0.859-0.419,1.199l-3.987,3.957c-0.18,0.199-0.415,0.369-0.704,0.51
			s-0.574,0.229-0.854,0.27c-0.021,0-0.081,0.006-0.181,0.016c-0.101,0.01-0.23,0.014-0.39,0.014c-0.38,0-0.994-0.064-1.845-0.193
			c-0.849-0.131-1.888-0.449-3.116-0.959c-1.229-0.51-2.625-1.275-4.183-2.295c-1.559-1.02-3.218-2.418-4.978-4.195
			c-1.398-1.381-2.557-2.7-3.477-3.958c-0.921-1.26-1.659-2.424-2.219-3.493c-0.559-1.069-0.979-2.039-1.259-2.908
			c-0.279-0.87-0.468-1.619-0.569-2.248c-0.1-0.63-0.14-1.125-0.12-1.485c0.02-0.359,0.029-0.559,0.029-0.599
			c0.04-0.28,0.13-0.564,0.271-0.854c0.139-0.291,0.309-0.525,0.509-0.705l3.988-3.987c0.279-0.281,0.599-0.42,0.959-0.42
			c0.26,0,0.49,0.075,0.689,0.225c0.2,0.149,0.37,0.334,0.51,0.554l3.208,6.085c0.18,0.321,0.229,0.669,0.149,1.049
			c-0.08,0.38-0.25,0.7-0.509,0.96l-1.469,1.469c-0.04,0.04-0.074,0.105-0.105,0.195c-0.029,0.09-0.044,0.165-0.044,0.225
			c0.08,0.42,0.259,0.899,0.539,1.438c0.239,0.48,0.61,1.064,1.109,1.754c0.499,0.689,1.209,1.483,2.128,2.384
			c0.9,0.919,1.699,1.632,2.399,2.142c0.699,0.512,1.284,0.885,1.754,1.125s0.829,0.385,1.079,0.436l0.375,0.074
			c0.04,0,0.105-0.016,0.194-0.045s0.154-0.066,0.195-0.105l1.709-1.738c0.359-0.319,0.779-0.479,1.259-0.479
			c0.34,0,0.609,0.061,0.81,0.18h0.03l5.785,3.417C33.316,24.104,33.565,24.434,33.646,24.834z"/>
	</g>
</g>
</svg>
