<?xml version="1.0" encoding="utf-8"?>
<!-- Generator: Adobe Illustrator 16.0.4, SVG Export Plug-In . SVG Version: 6.00 Build 0)  -->
<!DOCTYPE svg PUBLIC "-//W3C//DTD SVG 1.1//EN" "http://www.w3.org/Graphics/SVG/1.1/DTD/svg11.dtd">
<svg version="1.1" id="Capa_1" xmlns="http://www.w3.org/2000/svg" xmlns:xlink="http://www.w3.org/1999/xlink" x="0px" y="0px"
	 width="51px" height="34px" viewBox="0 0 51 34" enable-background="new 0 0 51 34" xml:space="preserve">
<circle fill="#231F20" cx="27.059" cy="14.591" r="0.5"/>
<circle fill="#231F20" cx="23.059" cy="14.591" r="0.5"/>
<circle fill="#231F20" cx="35.059" cy="14.591" r="0.5"/>
<circle fill="#231F20" cx="31.059" cy="14.591" r="0.5"/>
<circle fill="#231F20" cx="19.059" cy="14.591" r="0.5"/>
<circle fill="#231F20" cx="15.059" cy="14.591" r="0.5"/>
<circle fill="#231F20" cx="9.059" cy="29.591" r="0.5"/>
<circle fill="#231F20" cx="9.059" cy="26.591" r="0.5"/>
<circle fill="#231F20" cx="9.059" cy="23.591" r="0.5"/>
<circle fill="#231F20" cx="9.059" cy="20.591" r="0.5"/>
<circle fill="#231F20" cx="9.059" cy="17.591" r="0.5"/>
<circle fill="#231F20" cx="9.059" cy="14.591" r="0.5"/>
<circle fill="#231F20" cx="9.059" cy="11.591" r="0.5"/>
<circle fill="#231F20" cx="9.059" cy="8.591" r="0.5"/>
<circle fill="#231F20" cx="9.059" cy="5.591" r="0.5"/>
<circle fill="#231F20" cx="6.059" cy="29.591" r="0.5"/>
<circle fill="#231F20" cx="6.059" cy="26.591" r="0.5"/>
<circle fill="#231F20" cx="6.059" cy="23.591" r="0.5"/>
<circle fill="#231F20" cx="6.059" cy="20.591" r="0.5"/>
<circle fill="#231F20" cx="6.059" cy="17.591" r="0.5"/>
<circle fill="#231F20" cx="6.059" cy="14.591" r="0.5"/>
<circle fill="#231F20" cx="6.059" cy="11.591" r="0.5"/>
<circle fill="#231F20" cx="6.059" cy="8.591" r="0.5"/>
<circle fill="#231F20" cx="6.059" cy="5.591" r="0.5"/>
<polyline fill="none" stroke="#231F20" stroke-linecap="round" stroke-linejoin="round" stroke-miterlimit="10" points="7.5,31 
	7.5,2.386 10.5,5.038 10.5,31 "/>
<polyline fill="none" stroke="#231F20" stroke-linecap="round" stroke-linejoin="round" stroke-miterlimit="10" points="7.5,31 
	7.5,2.386 4.5,5.038 4.5,31 "/>
<rect x="13.5" y="19.5" fill="none" stroke="#231F20" stroke-linecap="round" stroke-linejoin="round" stroke-miterlimit="10" width="2" height="10"/>
<rect x="35.5" y="19.5" fill="none" stroke="#231F20" stroke-linecap="round" stroke-linejoin="round" stroke-miterlimit="10" width="2" height="10"/>
<line fill="none" stroke="#231F20" stroke-linecap="round" stroke-linejoin="round" stroke-miterlimit="10" x1="14.5" y1="19" x2="14.5" y2="17"/>
<line fill="none" stroke="#231F20" stroke-linecap="round" stroke-linejoin="round" stroke-miterlimit="10" x1="36.5" y1="19" x2="36.5" y2="17"/>
<line fill="none" stroke="#231F20" stroke-linecap="round" stroke-linejoin="round" stroke-miterlimit="10" x1="13" y1="16.5" x2="38" y2="16.5"/>
<polyline fill="none" stroke="#231F20" stroke-linecap="round" stroke-linejoin="round" stroke-miterlimit="10" points="18,29.5 
	40.407,29.5 41.841,31.5 49,31.5 "/>
<rect x="20.5" y="19.5" fill="none" stroke="#231F20" stroke-linecap="round" stroke-linejoin="round" stroke-miterlimit="10" width="10" height="10"/>
<line fill="none" stroke="#231F20" stroke-linecap="round" stroke-linejoin="round" stroke-miterlimit="10" x1="23" y1="31.5" x2="2" y2="31.5"/>
<line fill="none" stroke="#231F20" stroke-linecap="round" stroke-linejoin="round" stroke-miterlimit="10" x1="25.5" y1="21" x2="25.5" y2="29"/>
</svg>
