<?xml version="1.0" encoding="utf-8"?>
<!-- Generator: Adobe Illustrator 16.0.4, SVG Export Plug-In . SVG Version: 6.00 Build 0)  -->
<!DOCTYPE svg PUBLIC "-//W3C//DTD SVG 1.1//EN" "http://www.w3.org/Graphics/SVG/1.1/DTD/svg11.dtd">
<svg version="1.1" id="Capa_1" xmlns="http://www.w3.org/2000/svg" xmlns:xlink="http://www.w3.org/1999/xlink" x="0px" y="0px"
	 width="40px" height="40px" viewBox="0 0 40 40" enable-background="new 0 0 40 40" xml:space="preserve">
<g>
	<g>
		<g>
			<path fill="none" stroke="#7BC142" stroke-width="2" stroke-linecap="round" stroke-linejoin="round" stroke-miterlimit="10" d="
				M31.4,31c1.967,0,3.6-0.743,3.6-3.044V7.065C35,4.767,33.083,3,30.768,3H9.729C7.415,3,6,4.767,6,7.065v20.891
				C6,30.257,7.415,31,9.729,31C9.729,31,29.434,31,31.4,31z"/>
		</g>
	</g>
	<ellipse fill="#7BC142" cx="21.057" cy="36.724" rx="1.112" ry="1.103"/>
	<ellipse fill="#7BC142" cx="25.504" cy="36.724" rx="1.112" ry="1.103"/>
	<ellipse fill="#7BC142" cx="29.953" cy="36.724" rx="1.112" ry="1.103"/>
	<ellipse fill="#7BC142" cx="12.159" cy="36.724" rx="1.112" ry="1.103"/>
	<ellipse fill="#7BC142" cx="16.608" cy="36.724" rx="1.112" ry="1.103"/>
</g>
<path fill="none" stroke="#7BC142" stroke-width="2" stroke-linecap="round" stroke-linejoin="round" stroke-miterlimit="10" d="
	M30.986,10.752c-0.455,0.199-1.632,0.359-2.114,0.473c0.533-0.504,0.932-1.136,1.158-1.841l0,0c0.064-0.2-0.152-0.374-0.336-0.264
	l0,0c-0.673,0.396-1.396,0.694-2.152,0.883c-0.043,0.013-0.088,0.018-0.134,0.018c-0.138,0-0.271-0.051-0.376-0.144
	c-0.805-0.707-1.84-1.096-2.913-1.096c-0.465,0-0.934,0.073-1.395,0.215c-1.428,0.442-2.528,1.615-2.874,3.062
	c-0.129,0.544-0.165,1.087-0.104,1.616c0.006,0.061-0.022,0.103-0.04,0.122c-0.032,0.035-0.076,0.056-0.121,0.056
	c-0.006,0-0.011-0.001-0.016-0.001c-3.124-0.29-7.932-4.226-7.932-4.226c-0.102-0.124-0.296-0.109-0.377,0.03l0,0
	c-0.39,0.666-0.596,1.43-0.596,2.207c0,1.188,0.479,2.31,1.312,3.126c-0.351-0.083-0.69-0.212-1.004-0.387l0,0
	c-0.153-0.084-0.34,0.024-0.342,0.197l0,0c-0.022,1.767,1.016,3.339,2.57,4.047c-0.031,0.001-0.062,0.001-0.094,0.001
	c-0.247,0-0.496-0.024-0.742-0.072l0,0c-0.171-0.031-0.315,0.13-0.262,0.297l0,0c0.504,1.571,1.861,3.008,3.484,3.269
	C14.241,23.246,12.672,24,11.04,24h-0.51c-0.156,0-0.289-0.178-0.329-0.026c-0.039,0.15,0.034,0.167,0.167,0.244
	c1.84,1.067,3.938,1.563,6.07,1.563c1.866,0,3.61-0.405,5.187-1.131c1.445-0.67,2.721-1.642,3.796-2.854
	c0.999-1.132,1.515-2.445,2.058-3.889C27.996,16.53,28,15.053,28,13.651v-0.068c0-0.224,0.369-0.436,0.549-0.58
	c0.674-0.548,1.397-1.192,1.881-1.915l0,0C30.561,10.897,31.196,10.658,30.986,10.752L30.986,10.752z"/>
</svg>
